<?xml version="1.0" encoding="utf-8"?>
<!-- Generator: Adobe Illustrator 22.1.0, SVG Export Plug-In . SVG Version: 6.00 Build 0)  -->
<svg version="1.1" id="Layer_1" xmlns="http://www.w3.org/2000/svg" xmlns:xlink="http://www.w3.org/1999/xlink" x="0px" y="0px"
	 viewBox="0 0 500 128.8" style="enable-background:new 0 0 500 128.8;" xml:space="preserve">
<style type="text/css">
	.st0{fill:#1A1A1A;}
</style>
<g>
	<g>
		<polygon class="st0" points="0,124.3 1.7,127.9 51.6,127.9 57.1,117.3 55.4,113.7 24.8,119.8 54.9,75.2 53.2,71.7 29.7,71.7 
			7.4,71.7 1.9,81.4 3.6,85 30.5,79.8 		"/>
		<polygon class="st0" points="368.2,113.7 339.5,119.8 339.5,104.1 350.3,104.1 358.3,95.3 356.9,92.3 339.5,96 339.5,79.8 
			366.6,85 368.3,81.4 362.8,71.7 316.9,71.7 315.3,75.2 321.1,78.5 321.1,119.8 313.1,124.4 314.8,127.9 364.4,127.9 369.9,117.3 
					"/>
		<polygon class="st0" points="310.3,91.6 313.1,88.7 308.4,71.7 256.9,71.7 252.2,88.7 255,91.6 273.4,79.8 273.4,119.8 
			265.5,124.4 267.1,127.9 298.2,127.9 299.8,124.4 291.9,119.8 291.9,79.8 		"/>
		<path class="st0" d="M469.9,70.8c-15.7,0-29.5,10.2-29.5,30.5c0,15,13.1,27.5,30.1,27.5c15.7,0,29.5-10.2,29.5-30.5
			C500,83.3,486.9,70.8,469.9,70.8z M473,119.8c-7,0-13.2-7-13.2-18.9c0-13.8,7.3-21.1,7.3-21.1c7,0,13.2,7,13.2,18.9
			C480.2,112.4,473,119.8,473,119.8z"/>
		<path class="st0" d="M418.8,106c8.8-3.1,14.9-9.9,14.9-18.5c0-9.7-9.5-15.8-22.8-15.8h-34.1l-1.7,3.6l5.8,3.3v41.3l-8,4.6l1.6,3.6
			h8.6h22.5l1.6-3.6l-8-4.6V108h5.6l12.4,20h21l1.7-3.6L418.8,106z M399.3,79.8c0.6,0,1,0,1.3,0c8.6,0,14.2,4.8,14.2,11
			c0,4.9-2.5,8.5-4.9,10.8l-10.6-3.4V79.8z"/>
		<path class="st0" d="M168.5,107.9c17.1,0,26.5-8.4,26.5-19.2c0-9.7-9.5-17.1-22.8-17.1H136l-1.7,3.6l8,4.6v40.1l-8,4.6l1.6,3.6
			h8.6H167l1.6-3.6l-8-4.6V108L168.5,107.9L168.5,107.9z M160.7,79.8c0.6,0,1,0,1.3,0c8.6,0,14.2,4.8,14.2,11
			c0,4.9-2.5,8.5-4.9,10.8l-10.6-3.4V79.8z"/>
		<path class="st0" d="M128.8,124.4L102,71.7H81.8l-1.7,3.6l6.2,3.7l-16,40.1l-9,5.3L63,128h21.2l1.7-3.6l-7.2-4.1l3.2-8H103
			l4.2,8.4l-6.6,3.8l1.7,3.6h25L128.8,124.4z M85.1,104.1l6.1-15.5l7.7,15.5H85.1z"/>
		<path class="st0" d="M251.3,119.8l-24.4-48.2h-20.1l-1.7,3.6l6.2,3.7l-16,40.1l-9,5.3l1.7,3.6h21.2l1.7-3.6l-7.2-4.1l3.2-8H228
			l4.2,8.4l-6.6,3.8l1.7,3.6h30.6l1.7-3.6L251.3,119.8z M210,104.1l6.1-15.5l7.7,15.5H210z"/>
	</g>
	<g>
		<polygon class="st0" points="373.4,42.9 344.6,49 344.6,33.3 355.4,33.3 363.4,24.5 362,21.5 344.6,25.2 344.6,9 371.7,14.2 
			373.4,10.6 367.9,0.9 322.1,0.9 320.4,4.5 326.2,7.8 326.2,49 318.2,53.6 319.9,57.1 369.5,57.1 375.1,46.5 		"/>
		<polygon class="st0" points="88.6,9 115.8,14.2 117.5,10.6 112,0.9 66.1,0.9 64.4,4.5 70.2,7.8 70.2,9 70.2,49 62.3,53.6 
			63.9,57.1 95,57.1 96.6,53.6 88.6,49 88.6,34.9 99.5,34.9 107.5,26.1 106.1,23.1 88.6,26.8 		"/>
		<polygon class="st0" points="150.8,9 158.7,4.5 157.1,0.9 126,0.9 124.4,4.5 132.3,9 132.3,49 124.4,53.6 126,57.1 157.1,57.1 
			158.7,53.6 150.8,49 		"/>
		<polygon class="st0" points="222.9,42.9 199.8,47.8 199.8,9 207.8,4.5 206.1,0.9 175.1,0.9 173.5,4.5 181.4,9 181.4,49 
			173.5,53.6 175.1,57.1 219.1,57.1 224.6,46.5 		"/>
		<polygon class="st0" points="301.1,9 309,4.5 307.4,0.9 285.9,0.9 271.5,29 257.2,0.9 237.1,0.9 235.4,4.5 241.3,7.8 241.3,48.3 
			232.3,53.6 233.9,57.1 255.2,57.1 256.8,53.6 249.6,49.5 249.6,24.2 265.9,57 266.6,56.7 282.7,25.6 282.7,49 274.7,53.6 
			276.4,57.1 307.4,57.1 309,53.6 301.1,49 		"/>
		
			<rect x="38.5" y="21.6" transform="matrix(0.7071 -0.7071 0.7071 0.7071 -7.0793 41.0145)" class="st0" width="14.9" height="14.9"/>
		
			<rect x="446.6" y="21.6" transform="matrix(0.7071 -0.7071 0.7071 0.7071 112.4305 329.5743)" class="st0" width="14.9" height="14.9"/>
		<path class="st0" d="M410,58c-8.3,0-16.9-1.6-21.2-3.9l-3.4-16.9l3.6-1.7c0,0,9.8,11.3,27.1,15.2c0.6-1.3,1-2.7,1-4.2
			c0-12-30.1-10.5-30.1-29.9C387,7.2,394.6,0,409.1,0c6.4,0,10.4,0.6,19.6,2.3l3.3,16.3l-3.6,1.7c0,0-11.9-11.4-24.4-14.9
			c-0.5,1.1-0.9,2.3-0.9,3.7c0,10.7,30.2,11.3,30.2,30.7C433.3,49.5,424.1,58,410,58z"/>
	</g>
</g>
</svg>
